<?xml version="1.0" standalone="no"?>
<!DOCTYPE svg PUBLIC "-//W3C//DTD SVG 20010904//EN"
 "http://www.w3.org/TR/2001/REC-SVG-20010904/DTD/svg10.dtd">
<svg version="1.0" xmlns="http://www.w3.org/2000/svg"
 width="40.000000pt" height="40.000000pt" viewBox="0 0 40.000000 40.000000"
 preserveAspectRatio="xMidYMid meet">

<g transform="translate(0.000000,40.000000) scale(0.100000,-0.100000)"
fill="#000000" stroke="none">
<path d="M242 315 c0 -16 2 -22 5 -12 2 9 2 23 0 30 -3 6 -5 -1 -5 -18z"/>
<path d="M70 296 c-6 -8 -10 -25 -7 -38 4 -20 4 -20 6 5 1 33 18 41 54 28 31
-12 37 -32 7 -24 -17 5 -20 1 -19 -28 2 -31 2 -32 6 -6 4 22 8 27 24 22 14 -5
19 -2 19 13 0 13 -11 24 -31 31 -41 14 -44 14 -59 -3z"/>
<path d="M51 201 c-3 -32 23 -91 39 -91 24 0 15 46 -10 53 -10 3 -20 15 -23
28 -2 13 -5 18 -6 10z"/>
<path d="M139 153 c-13 -16 -12 -17 4 -4 9 7 17 15 17 17 0 8 -8 3 -21 -13z"/>
<path d="M148 53 c12 -2 30 -2 40 0 9 3 -1 5 -23 4 -22 0 -30 -2 -17 -4z"/>
<path d="M213 30 c2 -10 18 -15 48 -16 44 -1 44 -1 4 3 -22 3 -44 10 -48 16
-6 8 -7 7 -4 -3z"/>
<path d="M68 13 c12 -2 30 -2 40 0 9 3 -1 5 -23 4 -22 0 -30 -2 -17 -4z"/>
</g>
</svg>
