<?xml version="1.0" standalone="no"?>
<!DOCTYPE svg PUBLIC "-//W3C//DTD SVG 20010904//EN"
 "http://www.w3.org/TR/2001/REC-SVG-20010904/DTD/svg10.dtd">
<svg version="1.0" xmlns="http://www.w3.org/2000/svg"
 width="50.000000pt" height="50.000000pt" viewBox="0 0 50.000000 50.000000"
 preserveAspectRatio="xMidYMid meet">

<g transform="translate(0.000000,50.000000) scale(0.100000,-0.100000)"
fill="#000000" stroke="none">
<path d="M260 332 c0 -10 69 -47 76 -40 3 3 -7 15 -22 27 -27 21 -54 28 -54
13z"/>
<path d="M168 279 c-18 -10 -25 -29 -10 -29 4 0 18 9 32 20 27 21 10 28 -22 9z"/>
<path d="M250 276 c0 -8 -6 -17 -12 -19 -7 -3 -3 -6 10 -6 16 -1 22 5 22 19 0
11 -4 20 -10 20 -5 0 -10 -6 -10 -14z"/>
</g>
</svg>
