<?xml version="1.0" standalone="no"?>
<!DOCTYPE svg PUBLIC "-//W3C//DTD SVG 20010904//EN"
 "http://www.w3.org/TR/2001/REC-SVG-20010904/DTD/svg10.dtd">
<svg version="1.0" xmlns="http://www.w3.org/2000/svg"
 width="50.000000pt" height="50.000000pt" viewBox="0 0 50.000000 50.000000"
 preserveAspectRatio="xMidYMid meet">

<g transform="translate(0.000000,50.000000) scale(0.100000,-0.100000)"
fill="#000000" stroke="none">
<path d="M333 450 c-13 -5 -23 -13 -23 -17 1 -18 40 -53 59 -53 24 0 25 -3 9
-30 -10 -16 -10 -22 0 -32 11 -11 17 -9 33 11 50 61 -7 149 -78 121z"/>
<path d="M70 310 c-28 -55 -26 -83 11 -114 37 -31 68 -40 112 -32 32 6 34 5
55 -47 12 -29 22 -58 22 -65 0 -8 24 -12 85 -12 l85 0 0 110 c0 109 -6 130
-25 88 -14 -30 -37 -42 -68 -34 -17 4 -29 15 -33 32 -9 35 -28 25 -32 -17 -1
-19 -5 -45 -8 -59 -6 -24 -6 -24 -28 12 -21 35 -23 36 -34 17 -21 -32 -67 -25
-115 20 l-42 39 22 51 c25 61 22 67 -7 11z"/>
<path d="M330 289 c0 -5 5 -7 10 -4 6 3 10 8 10 11 0 2 -4 4 -10 4 -5 0 -10
-5 -10 -11z"/>
<path d="M121 261 c-10 -7 -11 -13 -2 -30 15 -28 18 -27 18 9 0 17 -1 30 -1
30 -1 0 -7 -4 -15 -9z"/>
<path d="M223 263 c-15 -5 -18 -43 -4 -43 5 0 11 7 15 15 3 8 13 15 21 15 9 0
13 5 10 10 -7 11 -22 12 -42 3z"/>
</g>
</svg>
